<svg width="32" height="32" viewBox="0 0 32 32" fill="none" xmlns="http://www.w3.org/2000/svg">
  <path d="M16 2C8.268 2 2 8.268 2 16C2 23.732 8.268 30 16 30C23.732 30 30 23.732 30 16C30 8.268 23.732 2 16 2ZM16 28C9.373 28 4 22.627 4 16C4 9.373 9.373 4 16 4C22.627 4 28 9.373 28 16C28 22.627 22.627 28 16 28Z" fill="#8A6BF2"/>
  <path d="M21 11C21 13.7614 18.7614 16 16 16C13.2386 16 11 13.7614 11 11C11 8.23858 13.2386 6 16 6C18.7614 6 21 8.23858 21 11Z" fill="#8A6BF2"/>
  <path d="M11 21C11 18.2386 13.2386 16 16 16C18.7614 16 21 18.2386 21 21C21 23.7614 18.7614 26 16 26C13.2386 26 11 23.7614 11 21Z" fill="#8A6BF2"/>
</svg>